<?xml version="1.0" encoding="utf-8"?>
<!-- Generator: Adobe Illustrator 24.2.3, SVG Export Plug-In . SVG Version: 6.00 Build 0)  -->
<svg version="1.1" id="Layer_1" xmlns="http://www.w3.org/2000/svg" xmlns:xlink="http://www.w3.org/1999/xlink" x="0px" y="0px"
	 viewBox="0 0 960 560" style="enable-background:new 0 0 960 560;" xml:space="preserve">
<style type="text/css">
	.st0{fill:#05D2DD;}
	.st1{opacity:0.52;fill:#3F38A3;}
	.st2{fill:#4432F9;}
	.st3{fill:#3F38A3;}
	.st4{fill:#7A08BC;}
	.st5{fill:#3F38A3;stroke:#3F38A3;stroke-width:2;stroke-miterlimit:10;}
	.st6{font-family:'MeltixRegularDemo';}
	.st7{font-size:106.9576px;}
	.st8{fill:#05D2DD;stroke:#05D2DD;stroke-width:3;stroke-miterlimit:10;}
</style>
<path class="st0" d="M304.2,285.7l-0.6,1.5l-25.8,65.3c0,0-7.4,14-21.7,13.4s-48.1,0-48.1,0l15-40.1h24.4c0,0,10.4-2.7,16.7-19.1
	s7.4-22.7,7.4-22.7h32.7V285.7z"/>
<path class="st1" d="M271.4,284.1h32.4l-30.4,41.4c0,0-1,4.3-21.4,4.3s-31.1,0-31.1,0l3.7-6.6h23.1c0,0,13.7-3.8,18.7-21.5
	S271.4,284.1,271.4,284.1z"/>
<path class="st2" d="M258,246.4h33.4l-27.1,66.8c0,0-2.3,14.4-38.8,12.4l-29.7,0.2l14.7-39.7l15.7-39.7H258z"/>
<path class="st3" d="M257.5,246.2h32.4l-30.4,41.4c0,0-1,4.3-21.4,4.3s-31.1,0-31.1,0l3.7-6.6h23.1c0,0,13.7-3.8,18.7-21.5
	C257.5,246.2,257.5,246.2,257.5,246.2z"/>
<path class="st4" d="M275.7,207.9l-26.3,64.6c0,0-5.8,18-40.1,13.7h-30.7l28.5-68.5c0,0,3.1-8.9,29.8-9.8
	C263.7,207,275.7,207.9,275.7,207.9z"/>
<text transform="matrix(1 0 0 1 321.9474 315.6032)" class="st5 st6 st7">Envoicy</text>
<circle class="st8" cx="584.3" cy="244.8" r="6.5"/>
</svg>
